<svg width="245" height="80" viewBox="0 0 245 80" fill="none" xmlns="http://www.w3.org/2000/svg">
<g clip-path="url(#clip0_1304_252)">
<path d="M245 0H0V80H245V0Z" fill="white"/>
<path d="M198.438 49.0879H193.629C195.59 50.0691 198.253 50.7225 200.605 50.9883L199.057 54.5049C195.857 53.9733 192.513 52.4806 190.429 50.9883C190.437 50.9775 191.401 49.6784 191.874 49.0879H186.074L187.787 50.8867C185.558 52.4404 182.379 54.0556 179.035 54.6689L177.467 51.2754C180.005 50.9892 182.503 50.1509 184.175 49.0879H179.737V34.0811H198.438V49.0879ZM104.812 27.1309C105.002 27.1724 108.341 27.7432 108.672 27.8047C108.176 34.8988 106.401 40.3582 103.697 44.3652C99.8168 50.1506 93.0673 53.0736 87.9072 54.4229L85.2861 50.7842L85.3066 50.8047C98.4133 48.699 104.111 40.9304 104.812 27.1309ZM176.6 30.4834H179.283V34.0205H176.6V38.6172C177.353 38.3232 178.087 38.0156 178.788 37.7002V41.4209C178.133 41.773 177.39 42.1145 176.6 42.4395V51.8477C176.599 53.5851 175.279 54.4032 174.392 54.4033H172.781L170.387 54.3418L169.788 50.8047L172.327 50.8867C172.74 50.8867 172.967 50.6822 173.029 50.3145V43.6973C171.988 44.0116 170.959 44.2813 170.016 44.4873L169.335 40.7461C170.526 40.5323 171.776 40.2219 173.029 39.8477V34.0205H169.562V30.4834H173.029V24.4727H176.6V30.4834ZM210.224 25.0654C209.563 27.4778 208.758 29.5629 207.664 31.873V54.3418H204.218V39.9492C204.218 39.9492 204.256 38.9579 204.258 38.2451C203.619 39.3379 202.703 40.447 201.968 41.1348L200.626 36.5342C203.412 33.6311 205.642 28.602 206.777 23.7568L210.224 25.0654ZM228.966 36.208H221.349V38.6406H231.071V41.8906H222.979C225.064 44.9164 228.615 47.7789 232 49.5166L229.643 52.6211C225.929 50.4536 222.587 46.6737 221.308 44.4053C221.328 44.6477 221.369 45.6291 221.37 45.6523V54.3213H218.047V45.7139C218.048 45.698 218.088 44.9734 218.129 44.5488C217.056 46.3684 212.763 50.8451 210.038 52.2559L209.894 52.3379L207.788 49.4961C211.111 47.697 214.786 44.4257 216.52 41.8906H208.366V38.6406H218.026V36.208H210.574V25.4541H228.966V36.208ZM229.646 52.624L229.626 52.6445L229.643 52.6211C229.644 52.6219 229.645 52.6232 229.646 52.624ZM139.633 50.6621H109.993V46.7979H139.633V50.6621ZM183.226 46.5928H194.97V44.6924H183.226V46.5928ZM183.226 42.5049H194.97V40.6035H183.226V42.5049ZM165.888 41.9932H141.057V38.1299H165.888V41.9932ZM85.3887 27.5186C87.3054 30.6418 88.8929 34.0507 90.3154 38.0703C89.8004 38.2221 86.874 39.3981 86.5039 39.6221C84.8939 35.4515 83.325 32.0778 81.6943 29.1543C82.2722 28.8885 84.666 27.8253 85.3887 27.5186ZM183.226 38.4355H194.97V36.5547H183.226V38.4355ZM90.3223 38.0889C90.3201 38.0828 90.3176 38.0764 90.3154 38.0703C90.3178 38.0696 90.32 38.069 90.3223 38.0684V38.0889ZM136.537 33.5293H113.089V29.666H136.537V33.5293ZM214.021 32.998H225.622V28.7246H214.021V32.998ZM197.634 32.6709H180.543V25.5156H197.634V32.6709ZM183.907 30.1973H194.001V27.9893H183.907V30.1973Z" fill="black"/>
<path d="M66.2544 29.4478V40.3925C64.4373 24.2659 13.2994 50.5279 11.616 35.5941C10.6346 26.8858 23.7032 16.6956 36.076 13.0778C45.0578 10.4519 53.283 11.3373 58.2297 14.4439C62.9789 17.4258 66.2544 23.1523 66.2544 29.4478Z" fill="url(#paint0_linear_1304_252)"/>
<path d="M11.9532 54.8668C11.9532 65.553 26.6991 71.7967 42.2836 67.123C57.4488 62.5741 67.3421 50.4853 66.4762 42.2212C64.7867 26.0794 13.6335 52.6243 11.9502 37.6875V54.8699L11.9532 54.8668Z" fill="url(#paint1_linear_1304_252)"/>
</g>
<defs>
<linearGradient id="paint0_linear_1304_252" x1="63.9097" y1="33.2141" x2="8.32706" y2="13.0117" gradientUnits="userSpaceOnUse">
<stop stop-color="white"/>
<stop offset="0.12" stop-color="white"/>
<stop offset="0.9" stop-color="#006B4E"/>
<stop offset="1" stop-color="#006B4E"/>
</linearGradient>
<linearGradient id="paint1_linear_1304_252" x1="11.6856" y1="40.4322" x2="66.7725" y2="60.4541" gradientUnits="userSpaceOnUse">
<stop stop-color="white"/>
<stop offset="0.12" stop-color="white"/>
<stop offset="0.9" stop-color="#002B69"/>
<stop offset="1" stop-color="#002B69"/>
</linearGradient>
<clipPath id="clip0_1304_252">
<rect width="245" height="80" fill="white"/>
</clipPath>
</defs>
</svg>
